# xmcd
#
# Track frame offsets:
#	150
#	18836
#	33615
#	55721
#	72239
#	87763
#	99313
#	121752
#	139711
#	152855
#	167427
#	181522
#	198489
#
# Disc length: 2802 seconds
#
# Revision: 4
# Processed by: cddbd v1.4PL0 Copyright (c) Steve Scherf et al.
# Submitted via: audiograbber 1.81.02
#
DISCID=990af00d
DTITLE=Keb' Mo' - Just Like You
DYEAR=1996
DGENRE=Blues
TTITLE0=That's Not Love
TTITLE1=Perpetual Blues Machine
TTITLE2=More Than One Way Home
TTITLE3=I'm On Your Side
TTITLE4=Just Like You
TTITLE5=You Can Love Yourself
TTITLE6=Dangerous Mood
TTITLE7=The Action
TTITLE8=Hand It Over
TTITLE9=Standin' At The Station
TTITLE10=Momma, Where's My Daddy
TTITLE11=Last Fair Deal Gone Down
TTITLE12=Lullaby Baby Blues
EXTD=
EXTT0=
EXTT1=
EXTT2=
EXTT3=
EXTT4=
EXTT5=
EXTT6=
EXTT7=
EXTT8=
EXTT9=
EXTT10=
EXTT11=
EXTT12=
PLAYORDER=
